<svg width="386.901" height="92.401" viewBox="0 0 386.901 92.401" xmlns="http://www.w3.org/2000/svg"><g id="svgGroup" stroke-linecap="round" fill-rule="evenodd" font-size="9pt" stroke="#f6da5c" stroke-width="0.25mm" fill="#f6da5c" style="stroke:#f6da5c;stroke-width:0.25mm;fill:#f6da5c"><path d="M 221.701 27.601 L 205.101 27.601 Q 203.401 27.601 202.151 26.401 A 3.97 3.97 0 0 1 200.902 23.513 A 5.104 5.104 0 0 1 200.901 23.401 A 3.86 3.86 0 0 1 202.074 20.576 A 4.824 4.824 0 0 1 202.151 20.501 Q 203.401 19.301 205.101 19.301 L 241.301 19.301 L 241.301 5.001 A 5.685 5.685 0 0 1 241.521 3.379 A 4.337 4.337 0 0 1 242.801 1.351 Q 244.301 0.001 246.301 0.001 Q 248.301 0.001 249.751 1.351 A 4.466 4.466 0 0 1 251.126 4.007 A 6.38 6.38 0 0 1 251.201 5.001 L 251.201 19.301 L 287.201 19.301 Q 288.901 19.301 290.151 20.501 A 4.019 4.019 0 0 1 291.144 21.963 A 3.973 3.973 0 0 1 291.401 23.401 A 4.249 4.249 0 0 1 291.088 25.05 A 3.988 3.988 0 0 1 290.151 26.401 Q 288.901 27.601 287.201 27.601 L 271.401 27.601 A 116.423 116.423 0 0 1 267.065 40.569 A 96.607 96.607 0 0 1 263.901 47.601 Q 259.401 56.601 253.101 63.901 Q 259.901 70.001 268.951 74.501 Q 278.001 79.001 289.601 82.101 A 5.884 5.884 0 0 1 291.136 82.726 A 4.451 4.451 0 0 1 292.851 84.551 A 4.992 4.992 0 0 1 293.307 85.817 Q 293.562 87.048 293.101 88.301 A 5.188 5.188 0 0 1 292.204 89.922 A 4.617 4.617 0 0 1 290.601 91.151 A 4.593 4.593 0 0 1 289.11 91.558 Q 287.845 91.691 286.266 91.248 A 11.7 11.7 0 0 1 286.101 91.201 A 134.767 134.767 0 0 1 273.054 86.676 A 107.812 107.812 0 0 1 264.001 82.501 Q 254.201 77.401 246.601 70.601 Q 231.701 83.901 207.101 91.201 Q 204.401 92.001 202.651 91.151 Q 200.901 90.301 200.101 88.301 Q 199.401 86.401 200.401 84.551 A 4.765 4.765 0 0 1 202.949 82.344 A 6.66 6.66 0 0 1 203.701 82.101 A 124.714 124.714 0 0 0 215.306 78.412 A 96.217 96.217 0 0 0 224.351 74.501 A 72.617 72.617 0 0 0 235.217 67.905 A 61.927 61.927 0 0 0 240.101 63.901 Q 233.801 56.601 229.301 47.601 A 106.264 106.264 0 0 1 223.998 34.927 A 128.972 128.972 0 0 1 221.701 27.601 Z M 53.901 89.401 L 38.501 89.401 A 68.676 68.676 0 0 1 33.204 89.21 Q 27.807 88.791 24.301 87.451 A 13.878 13.878 0 0 1 20.422 85.247 A 11.672 11.672 0 0 1 17.151 80.951 Q 15.101 76.401 15.101 68.501 A 49.677 49.677 0 0 1 15.301 63.89 Q 15.514 61.608 15.955 59.697 A 19.603 19.603 0 0 1 17.151 56.051 A 11.971 11.971 0 0 1 23.222 50.008 A 16.025 16.025 0 0 1 24.301 49.551 A 24.359 24.359 0 0 1 28.229 48.45 Q 32.219 47.655 37.734 47.604 A 82.573 82.573 0 0 1 38.501 47.601 L 41.201 47.601 L 41.201 29.801 L 4.501 29.801 A 4.823 4.823 0 0 1 2.947 29.56 A 4.054 4.054 0 0 1 1.251 28.451 Q 0.001 27.101 0.001 25.201 Q 0.001 23.301 1.251 22.001 A 4.178 4.178 0 0 1 3.953 20.726 A 5.701 5.701 0 0 1 4.501 20.701 L 41.201 20.701 L 41.201 5.401 A 5.448 5.448 0 0 1 41.469 3.658 A 4.575 4.575 0 0 1 42.651 1.801 Q 44.101 0.401 46.201 0.401 Q 48.301 0.401 49.751 1.801 A 4.688 4.688 0 0 1 51.186 4.962 A 6.325 6.325 0 0 1 51.201 5.401 L 51.201 20.701 L 87.901 20.701 A 5.009 5.009 0 0 1 89.429 20.923 A 4.071 4.071 0 0 1 91.151 22.001 A 4.429 4.429 0 0 1 92.401 25.141 A 5.733 5.733 0 0 1 92.401 25.201 Q 92.401 27.101 91.151 28.451 A 4.147 4.147 0 0 1 88.269 29.789 A 5.629 5.629 0 0 1 87.901 29.801 L 51.201 29.801 L 51.201 47.601 L 53.901 47.601 A 68.676 68.676 0 0 1 59.198 47.791 Q 64.595 48.21 68.101 49.551 A 13.878 13.878 0 0 1 71.98 51.754 A 11.672 11.672 0 0 1 75.251 56.051 Q 77.301 60.601 77.301 68.501 A 49.677 49.677 0 0 1 77.101 73.111 Q 76.887 75.393 76.447 77.304 A 19.603 19.603 0 0 1 75.251 80.951 A 11.971 11.971 0 0 1 69.18 86.993 A 16.025 16.025 0 0 1 68.101 87.451 A 24.359 24.359 0 0 1 64.173 88.551 Q 60.183 89.346 54.668 89.397 A 82.573 82.573 0 0 1 53.901 89.401 Z M 172.201 47.901 L 146.901 47.901 A 45.525 45.525 0 0 1 143.52 47.783 Q 140.07 47.526 137.801 46.701 A 9.27 9.27 0 0 1 135.402 45.433 A 7.344 7.344 0 0 1 133.151 42.701 Q 132.172 40.67 131.903 37.639 A 27.636 27.636 0 0 1 131.801 35.201 A 27.823 27.823 0 0 1 131.933 32.401 Q 132.075 30.993 132.373 29.821 A 11.121 11.121 0 0 1 133.151 27.651 A 7.501 7.501 0 0 1 136.45 24.3 A 10.34 10.34 0 0 1 137.801 23.701 A 16.462 16.462 0 0 1 140.333 23.024 Q 142.985 22.517 146.659 22.501 A 55.31 55.31 0 0 1 146.901 22.501 L 154.701 22.501 L 154.701 17.501 L 131.101 17.501 A 4.571 4.571 0 0 1 129.778 17.318 A 3.573 3.573 0 0 1 128.201 16.351 Q 127.101 15.201 127.101 13.601 A 4.3 4.3 0 0 1 127.311 12.228 A 3.622 3.622 0 0 1 128.201 10.801 A 3.692 3.692 0 0 1 130.296 9.761 A 5.171 5.171 0 0 1 131.101 9.701 L 154.701 9.701 L 154.701 4.901 A 5.212 5.212 0 0 1 154.907 3.399 A 4.1 4.1 0 0 1 155.951 1.651 A 4.221 4.221 0 0 1 158.859 0.406 A 5.591 5.591 0 0 1 159.101 0.401 Q 160.901 0.401 162.201 1.651 A 4.178 4.178 0 0 1 163.475 4.353 A 5.701 5.701 0 0 1 163.501 4.901 L 163.501 9.701 L 188.101 9.701 A 4.758 4.758 0 0 1 189.322 9.849 A 3.413 3.413 0 0 1 190.951 10.801 A 3.758 3.758 0 0 1 191.974 13.071 A 5.073 5.073 0 0 1 192.001 13.601 Q 192.001 15.201 190.951 16.351 A 3.462 3.462 0 0 1 188.853 17.446 A 4.943 4.943 0 0 1 188.101 17.501 L 163.501 17.501 L 163.501 22.501 L 172.201 22.501 A 45.525 45.525 0 0 1 175.582 22.618 Q 179.032 22.876 181.301 23.701 A 9.464 9.464 0 0 1 183.66 24.931 A 7.31 7.31 0 0 1 185.951 27.651 Q 186.903 29.59 187.184 32.549 A 28.153 28.153 0 0 1 187.301 35.201 A 26.727 26.727 0 0 1 187.156 38.08 Q 186.858 40.819 185.951 42.701 A 7.543 7.543 0 0 1 182.47 46.194 A 10.296 10.296 0 0 1 181.301 46.701 A 16.462 16.462 0 0 1 178.769 47.378 Q 176.117 47.884 172.443 47.9 A 55.31 55.31 0 0 1 172.201 47.901 Z M 318.001 19.501 L 340.701 19.501 Q 342.101 19.501 343.101 20.551 Q 344.101 21.601 344.101 23.001 Q 344.101 24.401 343.101 25.451 Q 342.101 26.501 340.701 26.501 L 318.601 26.501 Q 317.201 26.501 316.201 25.451 Q 315.201 24.401 315.201 23.001 A 3.613 3.613 0 0 1 315.267 22.295 A 2.74 2.74 0 0 1 315.501 21.601 Q 313.001 23.501 310.501 25.351 Q 308.001 27.201 305.401 28.901 Q 304.17 29.67 302.851 29.67 A 4.726 4.726 0 0 1 302.051 29.601 A 4.34 4.34 0 0 1 299.205 27.806 A 5.524 5.524 0 0 1 299.201 27.801 A 3.808 3.808 0 0 1 298.597 26.529 Q 298.374 25.663 298.601 24.701 A 3.975 3.975 0 0 1 300.431 22.143 A 4.836 4.836 0 0 1 300.501 22.101 Q 306.401 18.501 311.951 14.151 Q 317.501 9.801 321.701 5.601 Q 324.316 2.986 326.908 2.079 A 8.324 8.324 0 0 1 329.451 1.601 A 7.816 7.816 0 0 1 329.654 1.598 Q 333.414 1.598 337.601 5.201 Q 339.924 7.233 342.949 9.593 A 171.16 171.16 0 0 0 343.151 9.751 Q 346.301 12.201 349.651 14.551 Q 353.001 16.901 355.801 18.701 A 3.944 3.944 0 0 1 357.093 20.016 A 3.99 3.99 0 0 1 357.551 21.201 A 4.139 4.139 0 0 1 357.648 22.013 Q 357.667 23.057 357.117 24.011 A 4.636 4.636 0 0 1 357.001 24.201 A 4.458 4.458 0 0 1 355.668 25.592 A 4.377 4.377 0 0 1 354.201 26.201 A 4.716 4.716 0 0 1 353.381 26.311 Q 352.054 26.368 350.903 25.602 A 4.75 4.75 0 0 1 350.901 25.601 Q 346.601 22.701 341.651 18.751 A 171.718 171.718 0 0 1 337.597 15.419 Q 335.777 13.872 334.214 12.442 A 94.66 94.66 0 0 1 333.201 11.501 Q 331.688 10.147 330.556 9.871 A 2.344 2.344 0 0 0 330.001 9.801 A 2.429 2.429 0 0 0 329.094 9.994 Q 328.329 10.303 327.428 11.102 A 12.182 12.182 0 0 0 326.901 11.601 A 91.126 91.126 0 0 1 324.389 14.015 A 107.98 107.98 0 0 1 322.751 15.501 A 118.353 118.353 0 0 1 318.622 19.001 A 129.779 129.779 0 0 1 318.001 19.501 Z M 378.201 74.701 L 378.201 5.101 A 4.948 4.948 0 0 1 378.382 3.727 A 3.686 3.686 0 0 1 379.501 1.951 Q 380.801 0.801 382.601 0.801 A 4.666 4.666 0 0 1 384.287 1.097 A 4.255 4.255 0 0 1 385.651 1.951 Q 386.901 3.101 386.901 5.101 L 386.901 76.201 Q 386.901 79.945 386.297 82.668 A 14.863 14.863 0 0 1 385.451 85.351 A 8.62 8.62 0 0 1 380.624 90.011 A 11.313 11.313 0 0 1 380.401 90.101 A 16.68 16.68 0 0 1 377.715 90.869 Q 374.635 91.501 370.201 91.501 Q 368.301 91.501 366.951 90.201 Q 365.601 88.901 365.501 87.001 A 6.585 6.585 0 0 1 365.493 86.672 Q 365.493 85.836 365.714 85.12 A 4.331 4.331 0 0 1 366.501 83.651 A 3.842 3.842 0 0 1 368.826 82.293 A 5.488 5.488 0 0 1 369.601 82.201 Q 372.673 81.958 374.438 81.552 A 11.261 11.261 0 0 0 375.201 81.351 A 4.487 4.487 0 0 0 376.318 80.846 A 3.216 3.216 0 0 0 377.601 79.301 A 6.379 6.379 0 0 0 377.904 78.269 Q 378.135 77.189 378.186 75.632 A 28.306 28.306 0 0 0 378.201 74.701 Z M 309.801 48.201 L 309.801 43.601 Q 309.801 36.801 312.901 33.901 A 8.94 8.94 0 0 1 315.817 32.133 Q 318.738 31.001 323.301 31.001 L 336.901 31.001 Q 344.301 31.001 347.351 33.901 Q 350.374 36.775 350.401 43.48 A 30.081 30.081 0 0 1 350.401 43.601 L 350.401 47.601 Q 350.401 54.301 347.351 57.251 A 8.664 8.664 0 0 1 344.488 59.034 Q 341.86 60.079 337.852 60.188 A 35.03 35.03 0 0 1 336.901 60.201 L 317.301 60.201 Q 316.001 67.501 313.151 74.051 Q 310.301 80.601 305.901 86.401 A 4.501 4.501 0 0 1 303.2 88.045 A 5.882 5.882 0 0 1 302.901 88.101 A 5.546 5.546 0 0 1 302.15 88.169 Q 302.097 88.17 302.045 88.17 A 4.49 4.49 0 0 1 299.501 87.401 A 3.729 3.729 0 0 1 297.931 84.866 A 4.706 4.706 0 0 1 297.901 84.651 Q 297.868 84.359 297.868 84.08 A 3.956 3.956 0 0 1 298.701 81.601 Q 302.201 77.201 304.701 72.451 A 40.007 40.007 0 0 0 307.571 65.376 A 48.171 48.171 0 0 0 308.501 61.801 A 52.37 52.37 0 0 0 309.434 55.874 Q 309.801 52.291 309.801 48.201 Z M 112.901 88.301 L 112.901 50.501 Q 111.401 52.101 109.851 53.601 Q 108.301 55.101 106.801 56.501 Q 105.401 57.801 103.501 57.801 A 4.504 4.504 0 0 1 100.245 56.444 A 5.79 5.79 0 0 1 100.201 56.401 A 4.284 4.284 0 0 1 98.901 53.308 A 5.232 5.232 0 0 1 98.901 53.251 A 4.302 4.302 0 0 1 99.187 51.659 A 3.937 3.937 0 0 1 100.201 50.201 A 91.771 91.771 0 0 0 104.72 45.888 A 109.386 109.386 0 0 0 107.451 43.001 Q 111.101 39.001 114.251 34.701 Q 117.401 30.401 119.601 26.501 A 4.785 4.785 0 0 1 120.972 24.984 A 4.664 4.664 0 0 1 122.451 24.301 Q 124.301 23.801 125.901 24.801 A 5.135 5.135 0 0 1 127.094 25.749 A 4.112 4.112 0 0 1 128.051 27.501 Q 128.404 28.834 127.865 30.168 A 5.552 5.552 0 0 1 127.501 30.901 Q 124.901 35.701 121.301 40.301 L 121.301 88.301 A 4.845 4.845 0 0 1 121.136 89.601 A 3.546 3.546 0 0 1 120.101 91.301 A 4.152 4.152 0 0 1 117.595 92.379 A 5.504 5.504 0 0 1 117.101 92.401 A 4.845 4.845 0 0 1 115.605 92.179 A 4.038 4.038 0 0 1 114.101 91.301 A 3.626 3.626 0 0 1 112.967 89.147 A 5.222 5.222 0 0 1 112.901 88.301 Z M 155.501 60.101 L 132.001 60.101 A 4.544 4.544 0 0 1 130.756 59.939 A 3.382 3.382 0 0 1 129.151 58.951 Q 128.101 57.801 128.101 56.201 A 4.539 4.539 0 0 1 128.328 54.739 A 3.885 3.885 0 0 1 129.151 53.351 A 3.462 3.462 0 0 1 131.249 52.256 A 4.943 4.943 0 0 1 132.001 52.201 L 187.201 52.201 Q 188.901 52.201 190.001 53.351 Q 191.101 54.501 191.101 56.201 Q 191.101 57.801 190.001 58.951 A 3.673 3.673 0 0 1 187.372 60.098 A 4.895 4.895 0 0 1 187.201 60.101 L 157.101 60.101 A 3.291 3.291 0 0 1 157.967 60.326 Q 158.47 60.529 159.001 60.901 Q 160.701 62.101 163.101 64.151 A 67.462 67.462 0 0 1 164.788 65.639 Q 165.609 66.388 166.307 67.084 A 35.816 35.816 0 0 1 167.101 67.901 Q 168.301 69.201 168.251 70.801 A 3.773 3.773 0 0 1 167.215 73.285 A 5.12 5.12 0 0 1 166.901 73.601 A 3.693 3.693 0 0 1 164.323 74.609 A 4.494 4.494 0 0 1 164.051 74.601 Q 162.401 74.501 161.301 73.301 Q 159.401 71.201 157.501 69.451 Q 155.601 67.701 153.601 66.101 Q 152.493 65.27 152.493 63.885 A 3.644 3.644 0 0 1 152.501 63.651 A 4.27 4.27 0 0 1 152.792 62.319 A 3.628 3.628 0 0 1 153.601 61.101 A 7.513 7.513 0 0 1 154.196 60.658 Q 154.926 60.172 155.501 60.101 Z M 359.501 66.701 L 359.501 14.101 A 4.06 4.06 0 0 1 360.721 11.129 A 4.942 4.942 0 0 1 360.801 11.051 A 4.548 4.548 0 0 1 362.177 10.123 A 4.115 4.115 0 0 1 363.801 9.801 Q 365.601 9.801 366.901 11.051 A 4.061 4.061 0 0 1 368.2 13.989 A 4.914 4.914 0 0 1 368.201 14.101 L 368.201 66.701 A 4.06 4.06 0 0 1 366.981 69.672 A 4.942 4.942 0 0 1 366.901 69.751 Q 365.601 71.001 363.801 71.001 A 4.179 4.179 0 0 1 360.885 69.83 A 5.438 5.438 0 0 1 360.801 69.751 A 4.061 4.061 0 0 1 359.502 66.813 A 4.914 4.914 0 0 1 359.501 66.701 Z M 38.501 80.501 L 53.901 80.501 A 47.115 47.115 0 0 0 56.887 80.412 Q 59.786 80.228 61.717 79.655 A 11.581 11.581 0 0 0 62.201 79.501 A 7.269 7.269 0 0 0 64.311 78.385 A 6.091 6.091 0 0 0 66.201 75.901 A 11.363 11.363 0 0 0 66.816 73.905 Q 67.267 71.845 67.298 68.946 A 40.557 40.557 0 0 0 67.301 68.501 A 33.754 33.754 0 0 0 67.199 65.78 Q 66.986 63.161 66.331 61.427 A 8.978 8.978 0 0 0 66.201 61.101 A 6.236 6.236 0 0 0 62.686 57.684 A 8.54 8.54 0 0 0 62.201 57.501 Q 59.301 56.501 53.901 56.501 L 38.501 56.501 A 47.115 47.115 0 0 0 35.515 56.589 Q 32.615 56.774 30.685 57.346 A 11.581 11.581 0 0 0 30.201 57.501 A 7.269 7.269 0 0 0 28.091 58.616 A 6.091 6.091 0 0 0 26.201 61.101 A 11.363 11.363 0 0 0 25.586 63.096 Q 25.135 65.157 25.103 68.056 A 40.557 40.557 0 0 0 25.101 68.501 A 33.754 33.754 0 0 0 25.203 71.221 Q 25.416 73.84 26.071 75.575 A 8.978 8.978 0 0 0 26.201 75.901 A 6.236 6.236 0 0 0 29.716 79.317 A 8.54 8.54 0 0 0 30.201 79.501 Q 33.101 80.501 38.501 80.501 Z M 144.201 77.701 L 144.201 68.601 A 4.031 4.031 0 0 1 144.441 67.183 A 3.544 3.544 0 0 1 145.501 65.701 A 4.68 4.68 0 0 1 146.967 64.842 A 4.273 4.273 0 0 1 148.401 64.601 Q 150.101 64.601 151.351 65.701 A 3.619 3.619 0 0 1 152.593 68.324 A 4.958 4.958 0 0 1 152.601 68.601 L 152.601 77.001 A 12.23 12.23 0 0 0 152.692 78.551 Q 152.988 80.858 154.251 81.701 A 4.22 4.22 0 0 0 155.317 82.182 Q 157.276 82.801 161.401 82.801 A 32.943 32.943 0 0 0 163.547 82.736 Q 166.625 82.534 167.951 81.701 A 4.781 4.781 0 0 0 169.204 80.521 Q 170.092 79.351 170.701 77.401 Q 171.201 75.701 172.701 75.051 A 4.381 4.381 0 0 1 174.46 74.683 Q 175.162 74.683 175.901 74.901 A 4.536 4.536 0 0 1 177.169 75.458 A 3.618 3.618 0 0 1 178.451 76.901 Q 179.102 78.204 178.811 79.809 A 6.508 6.508 0 0 1 178.701 80.301 Q 177.81 84.342 175.724 86.624 A 8.637 8.637 0 0 1 173.551 88.351 A 12.912 12.912 0 0 1 170.764 89.461 Q 167.901 90.269 163.65 90.449 A 60.362 60.362 0 0 1 161.101 90.501 A 59.106 59.106 0 0 1 157.417 90.393 Q 153.786 90.166 151.293 89.456 A 16.966 16.966 0 0 1 151.101 89.401 A 11.075 11.075 0 0 1 148.633 88.35 A 7.74 7.74 0 0 1 145.801 85.551 A 9.993 9.993 0 0 1 144.842 83.214 Q 144.211 80.964 144.201 77.801 A 32.296 32.296 0 0 1 144.201 77.701 Z M 336.701 90.801 L 328.201 90.801 A 33.785 33.785 0 0 1 324.692 90.632 Q 321.151 90.261 319.017 89.072 A 7.196 7.196 0 0 1 317.651 88.101 Q 315 85.674 314.731 79.533 A 32.794 32.794 0 0 1 314.701 78.101 Q 314.701 71.99 316.713 69.084 A 6.395 6.395 0 0 1 317.651 68.001 A 8.098 8.098 0 0 1 320.158 66.491 Q 323.154 65.301 328.201 65.301 L 336.701 65.301 A 33.786 33.786 0 0 1 340.21 65.469 Q 343.751 65.841 345.885 67.029 A 7.196 7.196 0 0 1 347.251 68.001 Q 349.868 70.396 350.163 76.491 A 33.298 33.298 0 0 1 350.201 78.101 Q 350.201 85.401 347.251 88.101 A 8.098 8.098 0 0 1 344.744 89.61 Q 341.748 90.801 336.701 90.801 Z M 261.201 27.601 L 231.801 27.601 Q 234.201 36.301 237.851 43.651 Q 241.501 51.001 246.601 57.201 Q 251.701 51.001 255.301 43.651 Q 258.901 36.301 261.201 27.601 Z M 105.871 26.054 A 5.499 5.499 0 0 0 107.601 25.101 A 73.16 73.16 0 0 0 109.99 23.206 A 91.103 91.103 0 0 0 113.601 20.051 Q 116.701 17.201 119.501 14.201 A 131.829 131.829 0 0 0 120.273 13.367 Q 121.406 12.131 122.398 10.984 A 78.34 78.34 0 0 0 124.301 8.701 Q 125.21 7.544 125.197 6.079 A 5.025 5.025 0 0 0 125.151 5.451 Q 124.901 3.601 123.401 2.601 Q 121.901 1.501 120.201 1.651 Q 118.501 1.801 117.301 3.301 A 41.978 41.978 0 0 1 116.481 4.415 Q 115.201 6.095 113.594 7.878 A 78.694 78.694 0 0 1 110.151 11.451 Q 105.701 15.801 101.501 18.901 Q 100.101 19.901 100.051 21.651 A 5.305 5.305 0 0 0 100.049 21.802 A 4.732 4.732 0 0 0 101.101 24.801 A 5.735 5.735 0 0 0 101.646 25.315 A 4.076 4.076 0 0 0 104.301 26.301 A 5.021 5.021 0 0 0 105.871 26.054 Z M 124.852 85.637 A 3.806 3.806 0 0 0 126.601 87.801 A 5.892 5.892 0 0 0 127.285 88.073 Q 128.625 88.509 129.901 88.151 Q 131.501 87.701 132.601 86.301 A 39.246 39.246 0 0 0 133.005 85.746 Q 134.094 84.223 135.173 82.418 A 66.836 66.836 0 0 0 137.151 78.851 A 139.738 139.738 0 0 0 137.997 77.188 Q 139.674 73.837 140.801 71.101 A 5.037 5.037 0 0 0 141.014 70.472 Q 141.37 69.129 140.801 67.951 A 4.053 4.053 0 0 0 139.657 66.525 A 5.162 5.162 0 0 0 138.401 65.801 Q 136.801 65.201 135.301 65.801 A 3.413 3.413 0 0 0 133.807 66.94 A 4.317 4.317 0 0 0 133.201 68.101 A 41.775 41.775 0 0 1 133.024 68.542 Q 132.392 70.094 131.566 71.776 A 70.227 70.227 0 0 1 129.701 75.301 Q 127.501 79.201 125.301 82.301 Q 124.495 83.348 124.631 84.656 A 4.228 4.228 0 0 0 124.751 85.301 A 5.107 5.107 0 0 0 124.852 85.637 Z M 189.516 86.608 A 4.021 4.021 0 0 0 190.801 86.101 A 6.008 6.008 0 0 0 191.787 85.385 A 4.181 4.181 0 0 0 193.001 83.551 A 3.4 3.4 0 0 0 193.168 82.501 Q 193.168 81.867 192.933 81.21 A 5.362 5.362 0 0 0 192.501 80.301 Q 190.801 77.401 188.251 73.451 Q 186.817 71.229 185.493 69.371 A 71.141 71.141 0 0 0 183.501 66.701 A 5.191 5.191 0 0 0 183.035 66.181 A 3.768 3.768 0 0 0 180.851 65.101 A 4.387 4.387 0 0 0 180.289 65.064 Q 179.659 65.064 179.037 65.248 A 5.359 5.359 0 0 0 177.801 65.801 A 3.747 3.747 0 0 0 176.708 66.726 A 3.838 3.838 0 0 0 176.001 68.201 A 4.097 4.097 0 0 0 175.959 68.385 Q 175.78 69.275 176.044 70.071 A 3.488 3.488 0 0 0 176.601 71.101 Q 178.901 74.201 181.201 77.901 A 163.022 163.022 0 0 1 182.56 80.125 Q 183.201 81.194 183.763 82.174 A 87.96 87.96 0 0 1 185.001 84.401 Q 185.901 86.001 187.601 86.501 Q 188.592 86.792 189.516 86.608 Z M 318.101 53.501 L 335.901 53.501 Q 338.647 53.501 340.101 52.916 A 3.713 3.713 0 0 0 340.801 52.551 Q 342.201 51.601 342.301 48.801 L 318.301 48.801 Q 318.301 50.001 318.251 51.201 Q 318.201 52.401 318.101 53.501 Z M 318.301 42.501 L 342.301 42.501 Q 342.201 39.601 340.801 38.651 A 4.087 4.087 0 0 0 339.785 38.17 Q 338.362 37.701 335.901 37.701 L 324.701 37.701 Q 321.201 37.701 319.851 38.651 A 2.879 2.879 0 0 0 318.972 39.69 Q 318.423 40.733 318.301 42.501 Z M 329.001 83.801 L 335.901 83.801 Q 339.401 83.801 340.701 82.601 A 3.181 3.181 0 0 0 341.441 81.516 Q 341.876 80.518 341.973 78.947 A 15.394 15.394 0 0 0 342.001 78.001 A 13.11 13.11 0 0 0 341.92 76.482 Q 341.676 74.401 340.701 73.501 A 3.491 3.491 0 0 0 339.619 72.845 Q 338.259 72.301 335.901 72.301 L 329.001 72.301 Q 325.501 72.301 324.201 73.501 A 3.237 3.237 0 0 0 323.441 74.619 Q 322.997 75.65 322.918 77.27 A 14.993 14.993 0 0 0 322.901 78.001 A 13.907 13.907 0 0 0 322.98 79.541 Q 323.157 81.121 323.731 82.029 A 2.831 2.831 0 0 0 324.201 82.601 A 3.491 3.491 0 0 0 325.283 83.256 Q 326.642 83.801 329.001 83.801 Z M 155.501 29.501 L 155.501 40.901 L 163.201 40.901 L 163.201 29.501 L 155.501 29.501 Z M 170.701 29.501 L 170.701 40.901 L 171.901 40.901 A 27.557 27.557 0 0 0 173.675 40.848 Q 176.265 40.68 177.321 39.976 A 2.169 2.169 0 0 0 177.551 39.801 A 2.77 2.77 0 0 0 178.223 38.85 Q 178.801 37.579 178.801 35.201 A 15.274 15.274 0 0 0 178.732 33.692 Q 178.582 32.183 178.102 31.308 A 2.584 2.584 0 0 0 177.551 30.601 A 2.939 2.939 0 0 0 176.665 30.094 Q 175.132 29.501 171.901 29.501 L 170.701 29.501 Z M 147.201 40.901 L 148.001 40.901 L 148.001 29.501 L 147.201 29.501 A 27.557 27.557 0 0 0 145.427 29.553 Q 142.837 29.721 141.781 30.425 A 2.169 2.169 0 0 0 141.551 30.601 A 2.77 2.77 0 0 0 140.878 31.552 Q 140.301 32.822 140.301 35.201 A 15.274 15.274 0 0 0 140.37 36.709 Q 140.52 38.218 141 39.094 A 2.584 2.584 0 0 0 141.551 39.801 A 2.939 2.939 0 0 0 142.437 40.307 Q 143.97 40.901 147.201 40.901 Z" vector-effect="non-scaling-stroke"/></g></svg>