<svg width="256.299" height="87.892" viewBox="0 0 256.299 87.892" xmlns="http://www.w3.org/2000/svg"><g id="svgGroup" stroke-linecap="round" fill-rule="evenodd" font-size="9pt" stroke="#f6da5c" stroke-width="0.25mm" fill="#000000" style="stroke:#f6da5c;stroke-width:0.25mm;fill:#000000"><path d="M 59.375 42.14 L 62.891 42.14 L 62.891 84.376 Q 53.613 87.892 43.653 87.892 A 44.042 44.042 0 0 1 27.1 84.718 Q 19.19 81.544 13.184 75.904 Q 7.178 70.265 3.589 61.939 A 44.623 44.623 0 0 1 0.016 45.224 A 51.385 51.385 0 0 1 0 43.946 Q 0 35.011 3.491 26.881 Q 6.983 18.751 12.866 12.867 Q 18.75 6.983 26.88 3.492 Q 35.01 0.001 43.946 0.001 A 42.839 42.839 0 0 1 64.649 5.177 Q 74.219 10.353 80.274 19.239 L 77.344 21.144 Q 71.778 12.989 62.964 8.253 A 39.557 39.557 0 0 0 43.946 3.517 Q 35.742 3.517 28.247 6.715 A 41.092 41.092 0 0 0 17.077 13.694 A 38.615 38.615 0 0 0 15.332 15.333 A 40.273 40.273 0 0 0 7.123 27.319 A 45.93 45.93 0 0 0 6.714 28.248 Q 3.516 35.743 3.516 43.946 A 41.748 41.748 0 0 0 6.017 58.454 A 39.737 39.737 0 0 0 6.812 60.45 A 40.346 40.346 0 0 0 11.79 69.06 A 35.01 35.01 0 0 0 15.601 73.292 Q 21.094 78.468 28.369 81.422 A 39.864 39.864 0 0 0 43.506 84.376 Q 51.758 84.376 59.375 81.788 L 59.375 78.419 A 47.717 47.717 0 0 1 44.092 80.86 Q 38.281 80.86 32.788 79.225 Q 27.295 77.589 22.632 74.391 A 37.006 37.006 0 0 1 14.478 66.773 A 32.739 32.739 0 0 1 9.947 58.975 A 38.692 38.692 0 0 1 9.009 56.471 A 38.65 38.65 0 0 1 7.049 45.185 A 43.902 43.902 0 0 1 7.031 43.946 A 36.082 36.082 0 0 1 11.988 25.44 Q 16.944 16.944 25.44 11.988 A 36.082 36.082 0 0 1 43.946 7.032 A 35.985 35.985 0 0 1 61.377 11.402 A 36.923 36.923 0 0 1 74.512 23.243 L 71.582 25.147 A 33.207 33.207 0 0 0 59.693 14.479 A 32.701 32.701 0 0 0 43.946 10.548 A 32.858 32.858 0 0 0 30.957 13.185 A 33.946 33.946 0 0 0 22.025 18.678 A 31.659 31.659 0 0 0 20.288 20.289 Q 15.821 24.757 13.184 30.958 A 32.858 32.858 0 0 0 10.547 43.946 A 37.079 37.079 0 0 0 11.55 52.676 A 33.359 33.359 0 0 0 12.329 55.396 A 32.167 32.167 0 0 0 15.174 61.686 A 27.681 27.681 0 0 0 17.261 64.723 Q 20.41 68.702 24.61 71.559 Q 28.809 74.415 33.765 75.88 A 35.73 35.73 0 0 0 43.946 77.345 A 43.753 43.753 0 0 0 59.375 74.61 L 59.375 71.095 A 41.621 41.621 0 0 1 44.287 73.878 Q 38.33 73.878 32.91 71.852 A 30.827 30.827 0 0 1 23.267 66.114 A 25.176 25.176 0 0 1 17.815 59.23 A 30.734 30.734 0 0 1 16.553 56.642 Q 14.063 50.88 14.063 43.946 A 29.296 29.296 0 0 1 18.067 28.956 Q 22.071 22.071 28.955 18.067 A 29.296 29.296 0 0 1 43.946 14.063 Q 51.514 14.063 58.032 17.579 A 29.599 29.599 0 0 1 68.653 27.149 L 65.723 29.054 A 26.33 26.33 0 0 0 56.372 20.68 A 25.727 25.727 0 0 0 43.946 17.579 A 25.75 25.75 0 0 0 30.713 21.119 Q 24.658 24.659 21.118 30.714 Q 17.578 36.769 17.578 43.946 A 30.881 30.881 0 0 0 18.24 50.436 A 26.969 26.969 0 0 0 18.994 53.224 A 25.638 25.638 0 0 0 21.047 57.899 A 21.343 21.343 0 0 0 22.901 60.646 A 24.884 24.884 0 0 0 28.736 65.968 Q 32.08 68.165 35.938 69.264 Q 39.795 70.362 43.946 70.362 A 36.761 36.761 0 0 0 59.375 67.091 L 59.375 63.722 Q 52.442 66.798 44.385 66.798 A 27.087 27.087 0 0 1 37.202 65.863 A 24.996 24.996 0 0 1 35.645 65.382 A 23.492 23.492 0 0 1 28.247 61.231 A 17.849 17.849 0 0 1 24.216 56.405 A 22.36 22.36 0 0 1 23.023 54.029 A 23.394 23.394 0 0 1 21.322 47.671 A 29.558 29.558 0 0 1 21.094 43.946 Q 21.094 39.308 22.901 35.084 A 23.085 23.085 0 0 1 27.398 28.179 A 22.111 22.111 0 0 1 27.783 27.784 A 22.947 22.947 0 0 1 34.952 22.958 A 26.004 26.004 0 0 1 35.083 22.901 Q 39.307 21.095 43.946 21.095 Q 49.756 21.095 54.737 23.805 A 22.707 22.707 0 0 1 62.842 31.153 L 59.961 33.058 A 18.993 18.993 0 0 0 53.101 26.881 A 19.034 19.034 0 0 0 43.946 24.61 A 18.607 18.607 0 0 0 30.451 30.099 A 22.507 22.507 0 0 0 30.274 30.274 A 18.607 18.607 0 0 0 24.611 43.697 A 22.489 22.489 0 0 0 24.61 43.946 A 25.667 25.667 0 0 0 24.988 48.455 A 19.398 19.398 0 0 0 26.221 52.662 A 17.018 17.018 0 0 0 28.253 56.232 A 13.951 13.951 0 0 0 30.64 58.717 A 19.831 19.831 0 0 0 36.89 62.135 A 22.666 22.666 0 0 0 42.822 63.242 A 26.317 26.317 0 0 0 44.287 63.282 Q 52.393 63.282 59.375 59.913 L 59.375 42.14 Z M 171.094 19.239 L 168.164 21.144 Q 162.598 12.989 153.784 8.253 A 39.557 39.557 0 0 0 134.766 3.517 Q 126.563 3.517 119.068 6.715 A 41.092 41.092 0 0 0 107.897 13.694 A 38.615 38.615 0 0 0 106.153 15.333 A 40.273 40.273 0 0 0 97.943 27.319 A 45.93 45.93 0 0 0 97.534 28.248 Q 94.336 35.743 94.336 43.946 Q 94.336 52.149 97.534 59.645 A 41.092 41.092 0 0 0 104.513 70.815 A 38.615 38.615 0 0 0 106.153 72.56 A 40.273 40.273 0 0 0 118.139 80.769 A 45.93 45.93 0 0 0 119.068 81.178 Q 126.563 84.376 134.766 84.376 Q 144.971 84.376 153.809 79.591 A 40.533 40.533 0 0 0 168.213 66.651 L 171.045 68.8 Q 164.99 77.589 155.42 82.74 A 42.904 42.904 0 0 1 134.766 87.892 Q 125.83 87.892 117.7 84.4 Q 109.571 80.909 103.687 75.025 Q 97.803 69.142 94.312 61.012 Q 90.821 52.882 90.821 43.946 Q 90.821 35.011 94.312 26.881 Q 97.803 18.751 103.687 12.867 Q 109.571 6.983 117.7 3.492 Q 125.83 0.001 134.766 0.001 A 42.839 42.839 0 0 1 155.469 5.177 Q 165.039 10.353 171.094 19.239 Z M 256.299 19.239 L 253.369 21.144 Q 247.803 12.989 238.989 8.253 A 39.557 39.557 0 0 0 219.971 3.517 Q 211.768 3.517 204.273 6.715 A 41.092 41.092 0 0 0 193.102 13.694 A 38.615 38.615 0 0 0 191.358 15.333 A 40.273 40.273 0 0 0 183.148 27.319 A 45.93 45.93 0 0 0 182.739 28.248 Q 179.541 35.743 179.541 43.946 Q 179.541 52.149 182.739 59.645 A 41.092 41.092 0 0 0 189.718 70.815 A 38.615 38.615 0 0 0 191.358 72.56 A 40.273 40.273 0 0 0 203.344 80.769 A 45.93 45.93 0 0 0 204.273 81.178 Q 211.768 84.376 219.971 84.376 Q 230.176 84.376 239.014 79.591 A 40.533 40.533 0 0 0 253.418 66.651 L 256.25 68.8 Q 250.196 77.589 240.625 82.74 A 42.904 42.904 0 0 1 219.971 87.892 Q 211.035 87.892 202.905 84.4 Q 194.776 80.909 188.892 75.025 Q 183.008 69.142 179.517 61.012 Q 176.026 52.882 176.026 43.946 Q 176.026 35.011 179.517 26.881 Q 183.008 18.751 188.892 12.867 Q 194.776 6.983 202.905 3.492 Q 211.035 0.001 219.971 0.001 A 42.839 42.839 0 0 1 240.674 5.177 Q 250.244 10.353 256.299 19.239 Z M 165.332 23.243 L 162.403 25.147 A 33.207 33.207 0 0 0 150.513 14.479 A 32.701 32.701 0 0 0 134.766 10.548 A 32.858 32.858 0 0 0 121.778 13.185 A 33.946 33.946 0 0 0 112.845 18.678 A 31.659 31.659 0 0 0 111.109 20.289 Q 106.641 24.757 104.004 30.958 A 32.858 32.858 0 0 0 101.367 43.946 A 32.858 32.858 0 0 0 104.004 56.935 A 33.946 33.946 0 0 0 109.498 65.867 A 31.659 31.659 0 0 0 111.109 67.604 Q 115.576 72.071 121.778 74.708 A 32.858 32.858 0 0 0 134.766 77.345 A 32.498 32.498 0 0 0 150.537 73.39 A 33.485 33.485 0 0 0 162.403 62.696 L 165.235 64.796 A 36.72 36.72 0 0 1 152.124 76.539 Q 144.092 80.86 134.766 80.86 A 36.082 36.082 0 0 1 116.26 75.904 Q 107.764 70.948 102.808 62.452 A 36.082 36.082 0 0 1 97.852 43.946 A 36.082 36.082 0 0 1 102.808 25.44 Q 107.764 16.944 116.26 11.988 A 36.082 36.082 0 0 1 134.766 7.032 A 35.985 35.985 0 0 1 152.197 11.402 A 36.923 36.923 0 0 1 165.332 23.243 Z M 250.537 23.243 L 247.608 25.147 A 33.207 33.207 0 0 0 235.718 14.479 A 32.701 32.701 0 0 0 219.971 10.548 A 32.858 32.858 0 0 0 206.983 13.185 A 33.946 33.946 0 0 0 198.05 18.678 A 31.659 31.659 0 0 0 196.314 20.289 Q 191.846 24.757 189.209 30.958 A 32.858 32.858 0 0 0 186.572 43.946 A 32.858 32.858 0 0 0 189.209 56.935 A 33.946 33.946 0 0 0 194.703 65.867 A 31.659 31.659 0 0 0 196.314 67.604 Q 200.781 72.071 206.983 74.708 A 32.858 32.858 0 0 0 219.971 77.345 A 32.498 32.498 0 0 0 235.742 73.39 A 33.485 33.485 0 0 0 247.608 62.696 L 250.44 64.796 A 36.72 36.72 0 0 1 237.329 76.539 Q 229.297 80.86 219.971 80.86 A 36.082 36.082 0 0 1 201.465 75.904 Q 192.969 70.948 188.013 62.452 A 36.082 36.082 0 0 1 183.057 43.946 A 36.082 36.082 0 0 1 188.013 25.44 Q 192.969 16.944 201.465 11.988 A 36.082 36.082 0 0 1 219.971 7.032 A 35.985 35.985 0 0 1 237.403 11.402 A 36.923 36.923 0 0 1 250.537 23.243 Z M 159.473 27.149 L 156.543 29.054 A 26.33 26.33 0 0 0 147.193 20.68 A 25.727 25.727 0 0 0 134.766 17.579 A 25.75 25.75 0 0 0 121.533 21.119 Q 115.479 24.659 111.939 30.714 Q 108.399 36.769 108.399 43.946 A 25.75 25.75 0 0 0 111.939 57.179 Q 115.479 63.233 121.533 66.773 Q 127.588 70.313 134.766 70.313 Q 141.455 70.313 147.217 67.188 A 26.315 26.315 0 0 0 156.592 58.741 L 159.473 60.743 A 29.599 29.599 0 0 1 148.853 70.313 Q 142.334 73.829 134.766 73.829 A 29.296 29.296 0 0 1 119.776 69.825 Q 112.891 65.821 108.887 58.937 A 29.296 29.296 0 0 1 104.883 43.946 A 29.296 29.296 0 0 1 108.887 28.956 Q 112.891 22.071 119.776 18.067 A 29.296 29.296 0 0 1 134.766 14.063 Q 142.334 14.063 148.853 17.579 A 29.599 29.599 0 0 1 159.473 27.149 Z M 244.678 27.149 L 241.748 29.054 A 26.33 26.33 0 0 0 232.398 20.68 A 25.727 25.727 0 0 0 219.971 17.579 A 25.75 25.75 0 0 0 206.738 21.119 Q 200.684 24.659 197.144 30.714 Q 193.604 36.769 193.604 43.946 A 25.75 25.75 0 0 0 197.144 57.179 Q 200.684 63.233 206.738 66.773 Q 212.793 70.313 219.971 70.313 Q 226.66 70.313 232.422 67.188 A 26.315 26.315 0 0 0 241.797 58.741 L 244.678 60.743 A 29.599 29.599 0 0 1 234.058 70.313 Q 227.539 73.829 219.971 73.829 A 29.296 29.296 0 0 1 204.981 69.825 Q 198.096 65.821 194.092 58.937 A 29.296 29.296 0 0 1 190.088 43.946 A 29.296 29.296 0 0 1 194.092 28.956 Q 198.096 22.071 204.981 18.067 A 29.296 29.296 0 0 1 219.971 14.063 Q 227.539 14.063 234.058 17.579 A 29.599 29.599 0 0 1 244.678 27.149 Z M 153.662 31.153 L 150.781 33.058 A 18.993 18.993 0 0 0 143.921 26.881 A 19.034 19.034 0 0 0 134.766 24.61 A 18.607 18.607 0 0 0 121.272 30.099 A 22.507 22.507 0 0 0 121.094 30.274 A 18.607 18.607 0 0 0 115.431 43.697 A 22.489 22.489 0 0 0 115.43 43.946 A 18.607 18.607 0 0 0 120.918 57.441 A 22.507 22.507 0 0 0 121.094 57.618 A 18.607 18.607 0 0 0 134.516 63.281 A 22.489 22.489 0 0 0 134.766 63.282 A 18.872 18.872 0 0 0 143.921 60.987 A 19.206 19.206 0 0 0 150.781 54.786 L 153.613 56.837 Q 150.488 61.427 145.508 64.112 A 22.283 22.283 0 0 1 134.766 66.798 Q 130.127 66.798 125.904 64.991 A 23.085 23.085 0 0 1 118.999 60.494 A 22.111 22.111 0 0 1 118.604 60.108 A 22.947 22.947 0 0 1 113.778 52.94 A 26.004 26.004 0 0 1 113.721 52.809 Q 111.914 48.585 111.914 43.946 Q 111.914 39.308 113.721 35.084 A 23.085 23.085 0 0 1 118.218 28.179 A 22.111 22.111 0 0 1 118.604 27.784 A 22.947 22.947 0 0 1 125.772 22.958 A 26.004 26.004 0 0 1 125.904 22.901 Q 130.127 21.095 134.766 21.095 Q 140.576 21.095 145.557 23.805 A 22.707 22.707 0 0 1 153.662 31.153 Z M 238.867 31.153 L 235.987 33.058 A 18.993 18.993 0 0 0 229.126 26.881 A 19.034 19.034 0 0 0 219.971 24.61 A 18.607 18.607 0 0 0 206.477 30.099 A 22.507 22.507 0 0 0 206.299 30.274 A 18.607 18.607 0 0 0 200.636 43.697 A 22.489 22.489 0 0 0 200.635 43.946 A 18.607 18.607 0 0 0 206.123 57.441 A 22.507 22.507 0 0 0 206.299 57.618 A 18.607 18.607 0 0 0 219.721 63.281 A 22.489 22.489 0 0 0 219.971 63.282 A 18.872 18.872 0 0 0 229.126 60.987 A 19.206 19.206 0 0 0 235.987 54.786 L 238.819 56.837 Q 235.694 61.427 230.713 64.112 A 22.283 22.283 0 0 1 219.971 66.798 Q 215.332 66.798 211.109 64.991 A 23.085 23.085 0 0 1 204.204 60.494 A 22.111 22.111 0 0 1 203.809 60.108 A 22.947 22.947 0 0 1 198.983 52.94 A 26.004 26.004 0 0 1 198.926 52.809 Q 197.119 48.585 197.119 43.946 Q 197.119 39.308 198.926 35.084 A 23.085 23.085 0 0 1 203.423 28.179 A 22.111 22.111 0 0 1 203.809 27.784 A 22.947 22.947 0 0 1 210.977 22.958 A 26.004 26.004 0 0 1 211.109 22.901 Q 215.332 21.095 219.971 21.095 Q 225.781 21.095 230.762 23.805 A 22.707 22.707 0 0 1 238.867 31.153 Z M 66.406 84.376 L 66.406 42.14 L 69.922 42.14 L 69.922 84.376 L 66.406 84.376 Z M 80.469 84.376 L 80.469 42.14 L 83.985 42.14 L 83.985 84.376 L 80.469 84.376 Z M 73.438 84.376 L 73.438 42.14 L 76.953 42.14 L 76.953 84.376 L 73.438 84.376 Z" vector-effect="non-scaling-stroke"/></g></svg>